<svg version="1.1" xmlns="http://www.w3.org/2000/svg" xmlns:xlink="http://www.w3.org/1999/xlink" width="16" height="16" viewBox="0,0,256,256"><g fill="#712cf9" fill-rule="nonzero" stroke="none" stroke-width="1" stroke-linecap="butt" stroke-linejoin="miter" stroke-miterlimit="10" stroke-dasharray="" stroke-dashoffset="0" font-family="none" font-weight="none" font-size="none" text-anchor="none" style="mix-blend-mode: normal"><g transform="translate(-0.032,0) scale(16,16)"><path d="M6.375,7.125v-2.467h1.78c0.973,0 1.542,0.457 1.542,1.237c0,0.802 -0.604,1.23 -1.764,1.23zM6.375,10.887h1.898c1.184,0 1.81,-0.48 1.81,-1.377c0,-0.885 -0.65,-1.348 -1.886,-1.348h-1.822z"></path><path d="M4.002,0c-2.20914,0 -4,1.79086 -4,4v8c0,2.20914 1.79086,4 4,4h8c2.20914,0 4,-1.79086 4,-4v-8c0,-2.20914 -1.79086,-4 -4,-4zM5.062,12v-8.455h3.399c1.587,0 2.543,0.809 2.543,2.11c0,0.884 -0.65,1.675 -1.483,1.816v0.1c1.143,0.117 1.904,0.931 1.904,2.033c0,1.488 -1.084,2.396 -2.888,2.396z"></path></g></g></svg>